<svg width="35" height="30" viewBox="0 0 35 30" fill="none" xmlns="http://www.w3.org/2000/svg">
<path d="M7.65185 22.2618C7.477 21.2504 7.58562 20.2479 7.71808 19.2454C7.80881 18.5563 8.24062 18.1887 8.98967 18.19C9.1261 18.19 9.26253 18.19 9.39897 18.19C11.2064 18.1315 11.8898 18.1038 11.8832 20.3561C11.8832 20.7337 11.9773 20.9326 12.4349 20.898C12.923 20.8615 13.4171 20.8923 13.9085 20.8886C14.0939 20.8886 14.2747 20.9074 14.4383 20.7627C16.149 19.2687 18.8147 19.2429 20.5314 20.6954C20.7301 20.8634 22.7693 20.9905 22.9547 20.8432C23.1017 20.7262 23.0481 20.5588 23.064 20.4096C23.109 19.9981 23.1229 19.5814 23.2057 19.1768C23.3276 18.584 23.6918 18.2076 24.3733 18.1913H24.4548C26.7231 18.2322 27.245 17.7929 27.4073 20.5701C27.4781 21.7658 27.3834 22.9502 27.2682 24.1302C27.1841 24.9974 26.5264 25.2139 24.6263 25.1478C23.7143 25.1164 23.2852 24.7702 23.1905 23.9955C22.9812 22.2095 22.9812 22.2152 21.0698 22.3882C20.8301 22.4103 20.6539 22.4455 20.5665 22.6853C20.3089 23.3927 19.6764 23.6356 18.9876 23.7463C17.9379 23.924 16.8622 23.9104 15.8179 23.7061C15.3371 23.6085 14.8946 23.4159 14.5734 23.0245C14.4052 22.8193 14.5072 22.4059 14.0919 22.4002C13.4105 22.3908 12.727 22.3845 12.0481 22.4348C11.8282 22.4505 11.9031 22.7306 11.8892 22.903C11.7123 25.0918 11.6077 25.1825 9.28969 25.146C8.15651 25.1283 7.72404 24.7457 7.65648 23.6582C7.628 23.1944 7.65185 22.7275 7.65185 22.2618Z" fill="black" fill-opacity="0.8"/>
<path d="M19.4193 18.7822C18.2835 18.4896 17.1874 18.426 16.0827 18.6771C15.6814 18.7684 15.4906 18.747 15.6145 18.2429C15.8218 17.4015 15.7251 16.4751 16.5371 15.8332C16.6404 15.7514 16.6139 15.4991 16.6145 15.3254C16.619 13.3803 16.619 11.4349 16.6145 9.48898C16.6145 8.71302 16.1927 8.3348 15.3721 8.32787C15.0992 8.32787 14.8257 8.32787 14.5528 8.32787C13.3369 8.32787 13.3375 8.32787 13.1905 9.46444C13.1773 9.56702 13.1905 9.68848 13.1362 9.76777C12.5805 10.5783 11.7116 10.2152 10.9639 10.2536C10.4009 10.2826 10.1142 9.88986 10.1029 9.40654C10.0691 8.18816 10.0877 6.96853 10.0917 5.74952C10.0971 5.64703 10.1229 5.54644 10.1678 5.45311C10.4248 4.87035 11.1745 4.71932 12.4487 4.93832C13.0845 5.04719 13.2687 5.45122 13.1892 5.95028C13.0567 6.7684 13.4541 6.88609 14.1892 6.83134C15.1509 6.76337 16.1311 6.95154 17.0139 6.34927C17.4113 6.07866 17.9193 6.2083 18.3199 6.47891C19.3876 7.19949 20.5817 6.67904 21.7095 6.79358C22.0513 6.82756 21.9082 6.43108 21.9148 6.22718C21.9288 5.7275 21.8718 5.14285 22.4957 4.99056C23.2242 4.81309 24.013 4.73882 24.7223 5.10006C24.9945 5.23977 25.0329 5.57017 25.0336 5.8628C25.0336 7.0044 25.0336 8.14537 25.0382 9.28697C25.0382 9.92636 24.6826 10.236 24.0335 10.2668C23.7335 10.2813 23.4328 10.2744 23.1321 10.2668C22.244 10.2517 21.8804 9.983 21.9453 9.16425C22.0056 8.39647 21.6804 8.2448 20.9843 8.3134C20.5254 8.35871 20.0571 8.32032 19.5935 8.32221C18.6769 8.32662 18.1537 8.81497 18.1524 9.67463C18.1524 11.4902 18.1524 13.3058 18.1491 15.1221C18.1491 15.4644 18.11 15.7879 18.5676 15.9358C18.8451 16.0252 18.916 16.3272 19.0074 16.562C19.2769 17.2725 19.369 18.0101 19.4193 18.7822Z" fill="black" fill-opacity="0.8"/>
</svg>
