<svg width="32" height="33" viewBox="0 0 32 33" fill="none" xmlns="http://www.w3.org/2000/svg">
<path d="M23.0701 0.643197C23.3906 0.435896 23.8685 0.435896 24.1822 0.761199L31.7388 8.31661C32.0087 8.58652 32.1048 9.01268 31.8567 9.42998L27.5643 16.0637C27.614 17.3853 27.4385 18.7137 27.0378 19.9866L27.9599 20.9085C28.3076 21.2562 28.3076 21.82 27.9599 22.1677C27.6389 22.4887 27.0793 22.5476 26.6962 22.1677L26.3062 21.7722C25.7691 22.8222 25.0611 23.8072 24.1822 24.6862C23.3032 25.5651 22.3181 26.2731 21.2682 26.8103L21.6637 27.2046C22.0114 27.5524 22.0114 28.1161 21.6637 28.4639C21.3427 28.7849 20.7814 28.846 20.4044 28.4639L19.4826 27.5418C18.2091 27.9426 16.8801 28.1181 15.5579 28.0682L8.9296 32.3571C8.57709 32.5852 8.11313 32.5361 7.81623 32.2392L0.260813 24.6838C-0.0360494 24.3869 -0.0852206 23.923 0.142811 23.5705L4.43012 16.943C4.31213 13.8351 5.43946 10.6887 7.81209 8.3161C10.1843 5.94392 13.3299 4.81658 16.4372 4.93407L23.0701 0.643197ZM4.83884 19.588L2.02845 23.9339L8.56514 30.4706L12.9102 27.6594C11.043 27.1447 9.27954 26.1536 7.81209 24.6862C6.34464 23.2187 5.35356 21.4553 4.83884 19.588ZM9.07133 9.57534C5.50049 13.1462 4.9582 19.3073 9.07546 23.4245C13.1927 27.5418 19.4085 26.9413 22.9229 23.4269C26.4373 19.9125 26.9851 13.6375 22.9229 9.57534C18.8608 5.5132 12.6422 6.0045 9.07133 9.57534ZM21.0341 11.4642C21.357 11.7871 21.407 12.3729 21.0341 12.7234L16.8876 16.8695L16.8875 20.2788C16.8875 20.789 16.4511 21.1693 15.9971 21.1693C15.5432 21.1693 15.1067 20.789 15.1067 20.2788V16.5011C15.1067 16.3043 15.1769 16.0637 15.3675 15.8715L19.7748 11.4642C20.1226 11.1165 20.6863 11.1165 21.0341 11.4642ZM23.4336 2.52884L19.0824 5.3426C20.8532 5.82044 22.4792 6.73959 23.9604 8.10008C25.4416 9.46056 26.5068 11.2322 27.156 13.4149L29.9703 9.06553L23.4336 2.52884Z" fill="black"/>
</svg>
