<svg width="71" height="71" viewBox="0 0 71 71" fill="none" xmlns="http://www.w3.org/2000/svg">
<g clip-path="url(#clip0_495_388)">
<g clip-path="url(#clip1_495_388)">
<g clip-path="url(#clip2_495_388)">
<path d="M36.4139 0.80524C16.259 0.4609 -0.360182 16.5209 -0.704522 36.6758C-0.900107 48.1037 4.19336 58.3747 12.3033 65.205C12.8335 64.7422 13.4024 64.318 14.0346 63.9737L24.9254 58.0331C26.3537 57.2535 27.2435 55.7563 27.2435 54.1283V49.6657C27.2435 49.6657 24.0466 45.8421 22.8276 40.5296C21.8167 39.8754 21.139 38.7446 21.139 37.4567V32.5726C21.139 31.4983 21.617 30.5383 22.3593 29.8661V22.8058C22.3593 22.8058 20.909 11.8186 35.7886 11.8186C50.6682 11.8186 49.2178 22.8058 49.2178 22.8058V29.8661C49.9616 30.5383 50.4382 31.4983 50.4382 32.5726V37.4567C50.4382 39.0986 49.3363 40.48 47.8405 40.9415C47.0072 43.5323 45.8047 46.0019 44.2153 48.247C43.8145 48.8131 43.4398 49.2924 43.112 49.6657V54.2412C43.112 55.9257 44.0638 57.467 45.5706 58.219L57.2327 64.0494C57.9324 64.3993 58.5646 64.8414 59.1472 65.3331C67.0119 58.7741 72.093 48.9673 72.2817 37.9237C72.6288 17.7688 56.5702 1.14958 36.4139 0.80524Z" fill="#E5E8EA"/>
</g>
</g>
</g>
<defs>
<clipPath id="clip0_495_388">
<rect x="0.790039" y="0.799805" width="70" height="70" rx="35" fill="white"/>
</clipPath>
<clipPath id="clip1_495_388">
<rect x="0.790039" y="0.799805" width="70" height="70" rx="35" fill="white"/>
</clipPath>
<clipPath id="clip2_495_388">
<rect width="73" height="73" fill="white" transform="translate(-0.709961 0.799805)"/>
</clipPath>
</defs>
</svg>
