<svg width="174" height="83" viewBox="0 0 174 83" fill="none" xmlns="http://www.w3.org/2000/svg">
<path d="M95.1415 114.538V65.7508C95.676 55.9579 99.482 46.6279 105.95 39.2554L140.589 3.75308C146.518 -2.3266 149.633 -0.56274 147.532 7.50597L140.401 35.1647C139.764 36.9437 139.585 38.8544 139.88 40.7208C140.175 42.5872 140.935 44.3493 142.09 45.8447C143.246 47.3401 144.759 48.5207 146.49 49.2777C148.221 50.0347 150.116 50.3437 151.998 50.1763H162.506C166.603 50.1862 170.531 51.8184 173.428 54.7159C176.326 57.6134 177.958 61.5405 177.968 65.6382V114.426C177.958 118.523 176.326 122.45 173.428 125.348C170.531 128.245 166.603 129.878 162.506 129.888H110.603C106.525 129.878 102.615 128.261 99.7205 125.388C96.8262 122.515 95.1809 118.616 95.1415 114.538ZM17.5318 130H69.3967C73.4944 129.99 77.4214 128.358 80.3189 125.461C83.2164 122.563 84.8486 118.636 84.8585 114.538V65.7508C84.8486 61.6531 83.2164 57.726 80.3189 54.8285C77.4214 51.931 73.4944 50.2988 69.3967 50.2889H58.8886C57.0064 50.4563 55.1123 50.1473 53.3809 49.3903C51.6496 48.6333 50.1366 47.4527 48.9814 45.9573C47.8262 44.4619 47.066 42.6998 46.7707 40.8334C46.4755 38.9669 46.6548 37.0562 47.2922 35.2773L54.6103 7.50597C56.7119 -0.712856 53.597 -2.47671 47.6674 3.75308L12.8782 39.1053C6.41044 46.4778 2.60442 55.8078 2.06987 65.6006V114.388C2.05503 116.43 2.44374 118.454 3.21367 120.345C3.98359 122.237 5.11956 123.957 6.55632 125.407C7.99307 126.858 9.7023 128.011 11.5858 128.799C13.4693 129.587 15.49 129.995 17.5318 130Z" fill="#1C69D4" fill-opacity="0.06"/>
</svg>
