<svg width="30" height="24" viewBox="0 0 30 24" fill="none" xmlns="http://www.w3.org/2000/svg">
<path d="M20.158 4C24.018 4 27.158 7.16 27.158 11C27.158 14.86 24.018 18 20.158 18H9.81797C5.95797 18 2.81797 14.86 2.81797 11C2.81797 7.16 5.95797 4 9.81797 4H20.158ZM13.158 14.36V7.66H9.81797C7.95797 7.66 6.45797 9.16 6.45797 11C6.45797 12.86 7.95797 14.36 9.81797 14.36H13.158ZM20.158 14.36C21.998 14.36 23.498 12.86 23.498 11C23.498 9.16 21.998 7.66 20.158 7.66H16.818V14.36H20.158Z" fill="black"/>
<path d="M20.158 5.65625C24.018 5.65625 27.158 8.81625 27.158 12.6562C27.158 16.5162 24.018 19.6562 20.158 19.6562H9.81797C5.95797 19.6562 2.81797 16.5162 2.81797 12.6562C2.81797 8.81625 5.95797 5.65625 9.81797 5.65625H20.158ZM13.158 16.0162V9.31625H9.81797C7.95797 9.31625 6.45797 10.8162 6.45797 12.6562C6.45797 14.5163 7.95797 16.0162 9.81797 16.0162H13.158ZM20.158 16.0162C21.998 16.0162 23.498 14.5163 23.498 12.6562C23.498 10.8162 21.998 9.31625 20.158 9.31625H16.818V16.0162H20.158Z" fill="black" fill-opacity="0.22"/>
<path d="M20.158 7.31348C24.018 7.31348 27.158 10.4735 27.158 14.3135C27.158 18.1735 24.018 21.3135 20.158 21.3135H9.81797C5.95797 21.3135 2.81797 18.1735 2.81797 14.3135C2.81797 10.4735 5.95797 7.31348 9.81797 7.31348H20.158ZM13.158 17.6735V10.9735H9.81797C7.95797 10.9735 6.45797 12.4735 6.45797 14.3135C6.45797 16.1735 7.95797 17.6735 9.81797 17.6735H13.158ZM20.158 17.6735C21.998 17.6735 23.498 16.1735 23.498 14.3135C23.498 12.4735 21.998 10.9735 20.158 10.9735H16.818V17.6735H20.158Z" fill="black" fill-opacity="0.11"/>
</svg>
