<svg width="170" height="40" viewBox="0 0 170 40" fill="none" xmlns="http://www.w3.org/2000/svg">
<path d="M22.762 5.3C27.78 5.3 31.862 9.408 31.862 14.4C31.862 19.418 27.78 23.5 22.762 23.5H9.32C4.302 23.5 0.22 19.418 0.22 14.4C0.22 9.408 4.302 5.3 9.32 5.3H22.762ZM13.662 18.768V10.058H9.32C6.902 10.058 4.952 12.008 4.952 14.4C4.952 16.818 6.902 18.768 9.32 18.768H13.662ZM22.762 18.768C25.154 18.768 27.104 16.818 27.104 14.4C27.104 12.008 25.154 10.058 22.762 10.058H18.42V18.768H22.762ZM53.1353 5.3C58.1533 5.3 62.2353 9.408 62.2353 14.4C62.2353 19.418 58.1533 23.5 53.1353 23.5H39.6933C34.6753 23.5 30.5933 19.418 30.5933 14.4C30.5933 9.408 34.6753 5.3 39.6933 5.3H53.1353ZM53.1353 18.768C55.5273 18.768 57.4773 16.818 57.4773 14.4C57.4773 12.008 55.5273 10.058 53.1353 10.058H39.6933C37.2753 10.058 35.3253 12.008 35.3253 14.4C35.3253 16.818 37.2753 18.768 39.6933 18.768H53.1353ZM81.1166 5.3C84.8086 5.3 87.8246 8.342 87.8246 12.034C87.8246 15.752 84.8086 18.768 81.1166 18.768H67.2586V23.5H62.5266V5.3H81.1166ZM81.1166 14.01C82.2086 14.01 83.0926 13.126 83.0926 12.034C83.0926 10.942 82.2086 10.058 81.1166 10.058H67.2586V14.01H81.1166ZM95.641 10.058C93.223 10.058 91.273 12.008 91.273 14.4C91.273 16.818 93.223 18.768 95.641 18.768H111.839V23.5H95.641C90.623 23.5 86.541 19.418 86.541 14.4C86.541 9.408 90.623 5.3 95.641 5.3H111.839V10.058H95.641ZM132.681 5.3L138.999 23.5H133.851L132.213 18.768H118.901L117.237 23.5H112.115L118.433 5.3H132.681ZM120.539 14.01H130.549L129.171 10.058H121.917L120.539 14.01ZM169.357 5.3L166.211 14.4L169.357 23.5H164.209L161.739 16.402H156.695V23.5H151.937V16.402H145.307L142.837 23.5H137.715L140.861 14.4L137.715 5.3H142.837L145.047 11.644H151.937V5.3H156.695V11.644H162.025L164.209 5.3H169.357Z" fill="#313131" fill-opacity="0.9"/>
<path d="M22.762 9.3C27.78 9.3 31.862 13.408 31.862 18.4C31.862 23.418 27.78 27.5 22.762 27.5H9.32C4.302 27.5 0.22 23.418 0.22 18.4C0.22 13.408 4.302 9.3 9.32 9.3H22.762ZM13.662 22.768V14.058H9.32C6.902 14.058 4.952 16.008 4.952 18.4C4.952 20.818 6.902 22.768 9.32 22.768H13.662ZM22.762 22.768C25.154 22.768 27.104 20.818 27.104 18.4C27.104 16.008 25.154 14.058 22.762 14.058H18.42V22.768H22.762ZM53.1353 9.3C58.1533 9.3 62.2353 13.408 62.2353 18.4C62.2353 23.418 58.1533 27.5 53.1353 27.5H39.6933C34.6753 27.5 30.5933 23.418 30.5933 18.4C30.5933 13.408 34.6753 9.3 39.6933 9.3H53.1353ZM53.1353 22.768C55.5273 22.768 57.4773 20.818 57.4773 18.4C57.4773 16.008 55.5273 14.058 53.1353 14.058H39.6933C37.2753 14.058 35.3253 16.008 35.3253 18.4C35.3253 20.818 37.2753 22.768 39.6933 22.768H53.1353ZM81.1166 9.3C84.8086 9.3 87.8246 12.342 87.8246 16.034C87.8246 19.752 84.8086 22.768 81.1166 22.768H67.2586V27.5H62.5266V9.3H81.1166ZM81.1166 18.01C82.2086 18.01 83.0926 17.126 83.0926 16.034C83.0926 14.942 82.2086 14.058 81.1166 14.058H67.2586V18.01H81.1166ZM95.641 14.058C93.223 14.058 91.273 16.008 91.273 18.4C91.273 20.818 93.223 22.768 95.641 22.768H111.839V27.5H95.641C90.623 27.5 86.541 23.418 86.541 18.4C86.541 13.408 90.623 9.3 95.641 9.3H111.839V14.058H95.641ZM132.681 9.3L138.999 27.5H133.851L132.213 22.768H118.901L117.237 27.5H112.115L118.433 9.3H132.681ZM120.539 18.01H130.549L129.171 14.058H121.917L120.539 18.01ZM169.357 9.3L166.211 18.4L169.357 27.5H164.209L161.739 20.402H156.695V27.5H151.937V20.402H145.307L142.837 27.5H137.715L140.861 18.4L137.715 9.3H142.837L145.047 15.644H151.937V9.3H156.695V15.644H162.025L164.209 9.3H169.357Z" fill="#313131" fill-opacity="0.22"/>
<path d="M22.762 13.3C27.78 13.3 31.862 17.408 31.862 22.4C31.862 27.418 27.78 31.5 22.762 31.5H9.32C4.302 31.5 0.22 27.418 0.22 22.4C0.22 17.408 4.302 13.3 9.32 13.3H22.762ZM13.662 26.768V18.058H9.32C6.902 18.058 4.952 20.008 4.952 22.4C4.952 24.818 6.902 26.768 9.32 26.768H13.662ZM22.762 26.768C25.154 26.768 27.104 24.818 27.104 22.4C27.104 20.008 25.154 18.058 22.762 18.058H18.42V26.768H22.762ZM53.1353 13.3C58.1533 13.3 62.2353 17.408 62.2353 22.4C62.2353 27.418 58.1533 31.5 53.1353 31.5H39.6933C34.6753 31.5 30.5933 27.418 30.5933 22.4C30.5933 17.408 34.6753 13.3 39.6933 13.3H53.1353ZM53.1353 26.768C55.5273 26.768 57.4773 24.818 57.4773 22.4C57.4773 20.008 55.5273 18.058 53.1353 18.058H39.6933C37.2753 18.058 35.3253 20.008 35.3253 22.4C35.3253 24.818 37.2753 26.768 39.6933 26.768H53.1353ZM81.1166 13.3C84.8086 13.3 87.8246 16.342 87.8246 20.034C87.8246 23.752 84.8086 26.768 81.1166 26.768H67.2586V31.5H62.5266V13.3H81.1166ZM81.1166 22.01C82.2086 22.01 83.0926 21.126 83.0926 20.034C83.0926 18.942 82.2086 18.058 81.1166 18.058H67.2586V22.01H81.1166ZM95.641 18.058C93.223 18.058 91.273 20.008 91.273 22.4C91.273 24.818 93.223 26.768 95.641 26.768H111.839V31.5H95.641C90.623 31.5 86.541 27.418 86.541 22.4C86.541 17.408 90.623 13.3 95.641 13.3H111.839V18.058H95.641ZM132.681 13.3L138.999 31.5H133.851L132.213 26.768H118.901L117.237 31.5H112.115L118.433 13.3H132.681ZM120.539 22.01H130.549L129.171 18.058H121.917L120.539 22.01ZM169.357 13.3L166.211 22.4L169.357 31.5H164.209L161.739 24.402H156.695V31.5H151.937V24.402H145.307L142.837 31.5H137.715L140.861 22.4L137.715 13.3H142.837L145.047 19.644H151.937V13.3H156.695V19.644H162.025L164.209 13.3H169.357Z" fill="#313131" fill-opacity="0.11"/>
</svg>
