<svg width="170" height="35" viewBox="0 0 170 35" fill="none" xmlns="http://www.w3.org/2000/svg">
<path d="M22.762 4.8C27.78 4.8 31.862 8.908 31.862 13.9C31.862 18.918 27.78 23 22.762 23H9.32C4.302 23 0.22 18.918 0.22 13.9C0.22 8.908 4.302 4.8 9.32 4.8H22.762ZM13.662 18.268V9.558H9.32C6.902 9.558 4.952 11.508 4.952 13.9C4.952 16.318 6.902 18.268 9.32 18.268H13.662ZM22.762 18.268C25.154 18.268 27.104 16.318 27.104 13.9C27.104 11.508 25.154 9.558 22.762 9.558H18.42V18.268H22.762ZM53.1353 4.8C58.1533 4.8 62.2353 8.908 62.2353 13.9C62.2353 18.918 58.1533 23 53.1353 23H39.6933C34.6753 23 30.5933 18.918 30.5933 13.9C30.5933 8.908 34.6753 4.8 39.6933 4.8H53.1353ZM53.1353 18.268C55.5273 18.268 57.4773 16.318 57.4773 13.9C57.4773 11.508 55.5273 9.558 53.1353 9.558H39.6933C37.2753 9.558 35.3253 11.508 35.3253 13.9C35.3253 16.318 37.2753 18.268 39.6933 18.268H53.1353ZM81.1166 4.8C84.8086 4.8 87.8246 7.842 87.8246 11.534C87.8246 15.252 84.8086 18.268 81.1166 18.268H67.2586V23H62.5266V4.8H81.1166ZM81.1166 13.51C82.2086 13.51 83.0926 12.626 83.0926 11.534C83.0926 10.442 82.2086 9.558 81.1166 9.558H67.2586V13.51H81.1166ZM95.641 9.558C93.223 9.558 91.273 11.508 91.273 13.9C91.273 16.318 93.223 18.268 95.641 18.268H111.839V23H95.641C90.623 23 86.541 18.918 86.541 13.9C86.541 8.908 90.623 4.8 95.641 4.8H111.839V9.558H95.641ZM132.681 4.8L138.999 23H133.851L132.213 18.268H118.901L117.237 23H112.115L118.433 4.8H132.681ZM120.539 13.51H130.549L129.171 9.558H121.917L120.539 13.51ZM169.357 4.8L166.211 13.9L169.357 23H164.209L161.739 15.902H156.695V23H151.937V15.902H145.307L142.837 23H137.715L140.861 13.9L137.715 4.8H142.837L145.047 11.144H151.937V4.8H156.695V11.144H162.025L164.209 4.8H169.357Z" fill="#F1F0EB"/>
<path d="M22.762 8.8C27.78 8.8 31.862 12.908 31.862 17.9C31.862 22.918 27.78 27 22.762 27H9.32C4.302 27 0.22 22.918 0.22 17.9C0.22 12.908 4.302 8.8 9.32 8.8H22.762ZM13.662 22.268V13.558H9.32C6.902 13.558 4.952 15.508 4.952 17.9C4.952 20.318 6.902 22.268 9.32 22.268H13.662ZM22.762 22.268C25.154 22.268 27.104 20.318 27.104 17.9C27.104 15.508 25.154 13.558 22.762 13.558H18.42V22.268H22.762ZM53.1353 8.8C58.1533 8.8 62.2353 12.908 62.2353 17.9C62.2353 22.918 58.1533 27 53.1353 27H39.6933C34.6753 27 30.5933 22.918 30.5933 17.9C30.5933 12.908 34.6753 8.8 39.6933 8.8H53.1353ZM53.1353 22.268C55.5273 22.268 57.4773 20.318 57.4773 17.9C57.4773 15.508 55.5273 13.558 53.1353 13.558H39.6933C37.2753 13.558 35.3253 15.508 35.3253 17.9C35.3253 20.318 37.2753 22.268 39.6933 22.268H53.1353ZM81.1166 8.8C84.8086 8.8 87.8246 11.842 87.8246 15.534C87.8246 19.252 84.8086 22.268 81.1166 22.268H67.2586V27H62.5266V8.8H81.1166ZM81.1166 17.51C82.2086 17.51 83.0926 16.626 83.0926 15.534C83.0926 14.442 82.2086 13.558 81.1166 13.558H67.2586V17.51H81.1166ZM95.641 13.558C93.223 13.558 91.273 15.508 91.273 17.9C91.273 20.318 93.223 22.268 95.641 22.268H111.839V27H95.641C90.623 27 86.541 22.918 86.541 17.9C86.541 12.908 90.623 8.8 95.641 8.8H111.839V13.558H95.641ZM132.681 8.8L138.999 27H133.851L132.213 22.268H118.901L117.237 27H112.115L118.433 8.8H132.681ZM120.539 17.51H130.549L129.171 13.558H121.917L120.539 17.51ZM169.357 8.8L166.211 17.9L169.357 27H164.209L161.739 19.902H156.695V27H151.937V19.902H145.307L142.837 27H137.715L140.861 17.9L137.715 8.8H142.837L145.047 15.144H151.937V8.8H156.695V15.144H162.025L164.209 8.8H169.357Z" fill="#F1F0EB" fill-opacity="0.22"/>
<path d="M22.762 10.8C27.78 10.8 31.862 14.908 31.862 19.9C31.862 24.918 27.78 29 22.762 29H9.32C4.302 29 0.22 24.918 0.22 19.9C0.22 14.908 4.302 10.8 9.32 10.8H22.762ZM13.662 24.268V15.558H9.32C6.902 15.558 4.952 17.508 4.952 19.9C4.952 22.318 6.902 24.268 9.32 24.268H13.662ZM22.762 24.268C25.154 24.268 27.104 22.318 27.104 19.9C27.104 17.508 25.154 15.558 22.762 15.558H18.42V24.268H22.762ZM53.1353 10.8C58.1533 10.8 62.2353 14.908 62.2353 19.9C62.2353 24.918 58.1533 29 53.1353 29H39.6933C34.6753 29 30.5933 24.918 30.5933 19.9C30.5933 14.908 34.6753 10.8 39.6933 10.8H53.1353ZM53.1353 24.268C55.5273 24.268 57.4773 22.318 57.4773 19.9C57.4773 17.508 55.5273 15.558 53.1353 15.558H39.6933C37.2753 15.558 35.3253 17.508 35.3253 19.9C35.3253 22.318 37.2753 24.268 39.6933 24.268H53.1353ZM81.1166 10.8C84.8086 10.8 87.8246 13.842 87.8246 17.534C87.8246 21.252 84.8086 24.268 81.1166 24.268H67.2586V29H62.5266V10.8H81.1166ZM81.1166 19.51C82.2086 19.51 83.0926 18.626 83.0926 17.534C83.0926 16.442 82.2086 15.558 81.1166 15.558H67.2586V19.51H81.1166ZM95.641 15.558C93.223 15.558 91.273 17.508 91.273 19.9C91.273 22.318 93.223 24.268 95.641 24.268H111.839V29H95.641C90.623 29 86.541 24.918 86.541 19.9C86.541 14.908 90.623 10.8 95.641 10.8H111.839V15.558H95.641ZM132.681 10.8L138.999 29H133.851L132.213 24.268H118.901L117.237 29H112.115L118.433 10.8H132.681ZM120.539 19.51H130.549L129.171 15.558H121.917L120.539 19.51ZM169.357 10.8L166.211 19.9L169.357 29H164.209L161.739 21.902H156.695V29H151.937V21.902H145.307L142.837 29H137.715L140.861 19.9L137.715 10.8H142.837L145.047 17.144H151.937V10.8H156.695V17.144H162.025L164.209 10.8H169.357Z" fill="#F1F0EB" fill-opacity="0.11"/>
</svg>
