<!-- icon666.com - MILLIONS OF FREE VECTOR ICONS --><svg id="f1647556-b640-42fe-b201-54d1922eef78" viewBox="0 0 64 64" xmlns="http://www.w3.org/2000/svg" data-name="line"><path d="m33.35686 9.99875a1.0002 1.0002 0 0 0 -.15424 1.99414 15.38062 15.38062 0 0 1 13.67774 11.71674 6.34141 6.34141 0 0 1 -3.61921-.9677 25.84613 25.84613 0 0 0 -22.03026.04442c-2.15174 1.238-3.50617.83593-4.04322.56317a15.26321 15.26321 0 0 1 12.25806-11.18817.99983.99983 0 0 0 -.33208-1.97167c-19.178 3.57889-19.11718 30.55893-.00173 34.16161a17.3237 17.3237 0 1 0 4.24494-34.35254zm-16.23236 20.89642 3.06537-.33978a3.47709 3.47709 0 0 1 3.168 1.35352l3.16406 4.105a3.70781 3.70781 0 0 1 .67676 1.50878l.82855 4.53974a15.32217 15.32217 0 0 1 -10.90274-11.16726zm13.00891 11.57141-.96991-5.316a5.7365 5.7365 0 0 0 -1.05273-2.35107l-3.167-4.10889a5.52615 5.52615 0 0 0 -4.97657-2.123l-3.186.3529a14.07992 14.07992 0 0 1 .03029-3.56958 6.30045 6.30045 0 0 0 5.39592-.819 24.26514 24.26514 0 0 1 20.16113.00147 8.30453 8.30453 0 0 0 4.2627 1.1914c.97032-.26672.59108.88474.68853 1.54058a15.00452 15.00452 0 0 1 -.10217 1.65516l-3.184-.35248a5.51728 5.51728 0 0 0 -4.97656 2.12012l-3.17383 4.11768a5.7351 5.7351 0 0 0 -1.04981 2.35742l-.96789 5.30322a15.2858 15.2858 0 0 1 -3.7321.00007zm5.83844-.40472.82642-4.52649a3.70616 3.70616 0 0 1 .67383-1.51514l3.1709-4.11377a3.48021 3.48021 0 0 1 3.168-1.35058l3.06391.33941a15.3205 15.3205 0 0 1 -10.90306 11.16657z" fill="#000000" style="fill: rgb(0, 86, 214);"></path><path d="m8.78557 47.344a1.00039 1.00039 0 0 0 -1.832.80375 8.53537 8.53537 0 0 1 .579 6.688l-.86028 2.55025a.9998.9998 0 1 0 1.89453.63964l.86035-2.54882a10.48794 10.48794 0 0 0 -.6416-8.13282z" fill="#000000" style="fill: rgb(0, 86, 214);"></path><path d="m59.25139 43.14328a8.82531 8.82531 0 0 0 .377-6.08594l-1.873-6.25586a4.72592 4.72592 0 0 0 -2.88965-3.06884l-.65045-.23841c.00079-.07641.00885-.1524.00885-.22888a22.22461 22.22461 0 0 0 -44.44922 0c0 .0777.00824.15491.009.23261l-.64575.23761a4.73265 4.73265 0 0 0 -2.89648 3.064l-1.87018 6.26021a8.826 8.826 0 0 0 .37305 6.07911c.39273.78736.66264 2.25665 1.878 1.78171a1.00041 1.00041 0 0 0 .5117-1.31834l-.55957-1.2705a6.8292 6.8292 0 0 1 -.28711-4.7002l1.86914-6.25537a2.70048 2.70048 0 0 1 1.75354-1.79333 22.51173 22.51173 0 0 0 .65274 3.51414 2.78958 2.78958 0 0 0 -1.4464 3.40082l1.66116 4.96818a5.69532 5.69532 0 0 1 .1875 2.90381 1.00022 1.00022 0 1 0 1.96289.38574c.706-2.54039-1.2214-6.49907-1.915-8.89308a.836.836 0 0 1 1.52053-.65521c0-.00005 4.539 7.31929 4.57517 7.36031a8.23216 8.23216 0 0 1 1.65528 4.03027c.34458 2.40643-.9094 4.61113-1.72264 7.03467a7.92584 7.92584 0 0 0 -.7969 4.54737.99982.99982 0 0 0 1.95508-.419 6.32138 6.32138 0 0 1 .63086-3.22212c.97913-2.74632 2.31224-5.32884 1.92288-8.1098a22.12574 22.12574 0 0 0 22.4921 0c-.3889 2.78231.94214 5.36131 1.92291 8.1098a6.32126 6.32126 0 0 1 .63086 3.22217.99985.99985 0 0 0 1.95509.41889c.5763-4.22125-3.10247-7.57519-2.5194-11.582a8.37379 8.37379 0 0 1 1.65513-4.03026c.03614-.041 4.5752-7.36036 4.5752-7.36036a.83642.83642 0 0 1 1.52047.65679l-1.66109 4.96724c-.35876 1.11776-1.06508 4.94328.9208 4.71294a1.001 1.001 0 0 0 .78818-1.17437 5.6975 5.6975 0 0 1 .1875-2.90429l1.66113-4.96631a2.79027 2.79027 0 0 0 -1.44635-3.40247 22.514 22.514 0 0 0 .65332-3.5188l.08893.0326a2.71683 2.71683 0 0 1 1.66113 1.76416l1.873 6.25634a6.82123 6.82123 0 0 1 -.291 4.70655l-2.52732 5.73929a10.199 10.199 0 0 0 -.32519 7.40332l.86621 2.54932a1.00056 1.00056 0 0 0 1.8945-.64361l-.86618-2.54877a8.19821 8.19821 0 0 1 .26074-5.95459zm-9.48539-8.98975-4.44336 7.17188a9.83158 9.83158 0 0 0 -1.29223 2.20141 20.19936 20.19936 0 0 1 -24.06257-.00122 9.83139 9.83139 0 0 0 -1.29168-2.20019l-4.44336-7.17188a2.86029 2.86029 0 0 0 -1.64276-1.22717c-7.0955-29.53274 38.05745-36.3579 39.63405-5.66036a20.44169 20.44169 0 0 1 -.81529 5.66038 2.86029 2.86029 0 0 0 -1.6428 1.22715z" fill="#000000" style="fill: rgb(0, 86, 214);"></path><path d="m36.63323 28.926c-.1949-6.12378-9.0736-6.12234-9.26758.00011.19504 6.12299 9.07346 6.12155 9.26758-.00011zm-4.63379 2.6333a2.63371 2.63371 0 0 1 .00008-5.26709 2.63371 2.63371 0 0 1 -.00008 5.26709z" fill="#000000" style="fill: rgb(0, 86, 214);"></path></svg>