<svg width="25" height="22" viewBox="0 0 25 22" fill="none" xmlns="http://www.w3.org/2000/svg">
<g clip-path="url(#clip0_140_7330)">
<path d="M17.8407 7.12936C18.7239 7.72471 19.5948 8.35051 20.5078 8.91078C21.0154 9.2223 21.0693 9.50566 20.7566 9.98793C20.4808 10.4125 20.346 10.634 19.7736 10.2413C17.984 9.01969 16.1864 7.80824 14.437 6.5331C13.5093 5.85745 12.5679 5.73931 11.6019 6.37757C9.74844 7.60241 7.90916 8.84709 6.06705 10.0858C5.73212 10.3105 5.34705 10.4647 5.07362 10.7743C4.89007 10.9806 4.80492 10.9013 4.66205 10.6867C3.79351 9.38336 3.78641 9.39167 5.08261 8.51296C5.78369 8.03807 6.47673 7.55164 7.19862 7.05322C7.11158 6.97522 7.05339 6.88892 6.97297 6.85754C6.54295 6.69001 6.33812 6.44726 6.34001 5.93914C6.3419 5.43102 6.5562 5.20073 6.96635 4.98659C10.1009 3.36624 13.3319 3.20425 16.6509 4.35802C17.0521 4.49647 17.4343 4.688 17.8222 4.86106C18.4022 5.12274 18.6307 5.5284 18.5976 6.18882C18.5701 6.74078 18.0138 6.73801 17.8407 7.12936Z" fill="black"/>
<path d="M15.3604 12.5581C15.4077 13.902 16.0075 14.8403 17.2413 15.3442C17.4575 15.4324 17.448 15.5164 17.3529 15.6742C16.8529 16.5003 16.3467 17.3227 15.8647 18.1585C15.7445 18.3666 15.5936 18.3892 15.3878 18.3892C13.4748 18.3855 11.5617 18.3892 9.64863 18.3855C9.37898 18.3855 8.69256 17.6222 8.71527 17.3605C8.72284 17.2738 8.78623 17.2401 8.86287 17.2101C10.5588 16.5437 11.7902 15.2385 13.2151 14.1974C13.9247 13.6768 14.6177 13.1285 15.3604 12.5581Z" fill="black"/>
<path d="M11.5187 14.4779C11.8228 12.2945 10.8057 10.3303 8.09131 9.74606C8.53315 9.44054 8.93336 9.15948 9.33783 8.88535C9.75082 8.60567 10.169 8.33154 10.6454 8.01587C10.7074 8.77412 10.95 9.40823 11.5546 9.85682C11.9875 10.1799 12.4903 10.3396 13.0211 10.3026C14.0543 10.2311 14.9876 9.60714 15.1901 8.1054L17.7446 9.86328C16.2285 10.2934 15.4739 11.5801 14.3022 12.3379C13.3508 12.9508 12.5022 13.7122 11.5187 14.4779Z" fill="black"/>
<path d="M18.3099 10.657C18.8683 10.6566 19.4042 10.8717 19.8007 11.2553C20.1972 11.6389 20.4221 12.1599 20.4264 12.7047C20.4302 13.7758 19.4514 14.7445 18.3511 14.7579C17.1996 14.7727 16.227 13.8446 16.2161 12.7222C16.214 12.4523 16.2665 12.1847 16.3707 11.9347C16.4749 11.6847 16.6287 11.4572 16.8232 11.2653C17.0178 11.0734 17.2493 10.9209 17.5044 10.8165C17.7595 10.7121 18.0333 10.6579 18.3099 10.657Z" fill="black"/>
<path d="M11.5191 8.11548C11.5216 7.76047 11.6676 7.42077 11.9254 7.17017C12.1831 6.91957 12.5318 6.77832 12.8957 6.77711C13.6891 6.77388 14.3244 7.38122 14.3178 8.13717C14.3111 8.88389 13.6437 9.51108 12.8744 9.49261C12.1265 9.47277 11.5153 8.85251 11.5191 8.11548Z" fill="#010101"/>
<path d="M10.7281 13.4967C10.6169 11.7711 9.21431 10.478 7.57089 10.5892C5.82055 10.7083 4.51821 12.1094 4.61519 13.7736C4.7098 15.3745 6.23638 16.7152 7.82493 16.5888C9.53884 16.4535 10.8298 15.0787 10.7281 13.4967ZM7.82256 15.4479C6.74587 15.4678 5.84279 14.5711 5.84989 13.4953C5.85651 12.5012 6.72458 11.6853 7.77573 11.6853C8.03283 11.6847 8.28744 11.7344 8.52445 11.8316C8.76147 11.9288 8.97608 12.0714 9.15555 12.251C9.33501 12.4306 9.47569 12.6436 9.56924 12.8772C9.66279 13.1108 9.70731 13.3604 9.70015 13.6111C9.68359 14.5498 8.78335 15.4304 7.82256 15.4479Z" fill="black"/>
<path d="M8.8373 13.5304C8.8411 13.669 8.81652 13.807 8.76501 13.9362C8.71349 14.0654 8.63607 14.1833 8.53727 14.283C8.43848 14.3827 8.32029 14.4621 8.18964 14.5167C8.05899 14.5713 7.91849 14.5999 7.77636 14.6008C7.63424 14.6018 7.49335 14.5751 7.36194 14.5223C7.23053 14.4694 7.11124 14.3916 7.01105 14.2932C6.91087 14.1949 6.83179 14.078 6.77846 13.9495C6.72513 13.821 6.69862 13.6834 6.70047 13.5447C6.70331 13.0099 7.1811 12.5294 7.73269 12.504C8.29375 12.4796 8.825 12.9725 8.8373 13.5304Z" fill="#010101"/>
</g>
<defs>
<clipPath id="clip0_140_7330">
<rect width="25" height="22" fill="white"/>
</clipPath>
</defs>
</svg>
