<svg width="25" height="22" viewBox="0 0 25 22" fill="none" xmlns="http://www.w3.org/2000/svg">
<path d="M23.2482 12.2207C23.2482 12.2207 23.3017 11.6669 23.208 11.4976C23.1144 11.3282 22.2666 10.1163 21.6389 9.88828C21.6389 9.88828 20.7169 9.64691 19.8753 9.50385C19.0337 9.36078 17.351 9.30817 17.351 9.30817C17.351 9.30817 14.7331 7.28862 13.1568 7.08002C11.5806 6.87142 5.14266 7.08002 5.14266 7.08002C5.14266 7.08002 3.36158 7.38415 3.14823 7.41876C2.93487 7.45337 3.47937 7.90519 3.47937 7.90519L1.99253 9.38201C1.8828 10.007 1.82914 10.6401 1.83216 11.2742C1.83216 12.3689 1.73755 12.9818 1.73755 12.9818L3.29866 13.2291L3.32231 13.2314C3.31711 13.1682 3.31332 13.1041 3.31332 13.0394C3.31338 12.7217 3.38316 12.4076 3.51796 12.1184C3.65277 11.8291 3.84948 11.5714 4.09488 11.3625C4.34027 11.1535 4.62867 10.9983 4.94068 10.9071C5.25269 10.816 5.58109 10.791 5.90381 10.834C6.22652 10.8769 6.53608 10.9867 6.81166 11.1561C7.08725 11.3254 7.32249 11.5504 7.50156 11.8158C7.68064 12.0812 7.7994 12.3809 7.84988 12.6948C7.90035 13.0087 7.88136 13.3296 7.79418 13.6357L8.05342 13.6592L17.0695 13.7515H17.0814C16.9835 13.4454 16.9545 13.1223 16.9964 12.8043C17.0384 12.4862 17.1502 12.1808 17.3244 11.9088C17.4985 11.6369 17.7309 11.4048 18.0054 11.2286C18.28 11.0523 18.5904 10.936 18.9153 10.8876C19.2402 10.8392 19.572 10.8598 19.888 10.9481C20.204 11.0364 20.4967 11.1902 20.7462 11.399C20.9956 11.6079 21.1958 11.8668 21.3331 12.1582C21.4705 12.4495 21.5417 12.7663 21.5419 13.087C21.5419 13.2859 21.4109 14.0561 21.4109 14.0561C21.4109 14.0561 21.8115 14.0691 21.865 14.0561C21.9185 14.0432 21.9383 13.6846 21.9383 13.6846C21.9383 13.6846 23.0202 13.6717 23.1806 12.9356C23.1806 12.9356 22.9332 12.7076 23.0335 12.4663C23.1338 12.2249 23.2482 12.2207 23.2482 12.2207ZM3.20121 9.94228C2.97887 10.1269 2.41781 10.3812 2.37335 10.329C2.32888 10.2769 2.4268 9.556 2.4268 9.556H3.53093C3.44467 9.70234 3.33312 9.83302 3.20121 9.94228ZM6.19949 7.65228C5.96295 7.98826 5.06413 8.93481 4.82192 9.02619C4.54613 9.13003 2.87196 9.08664 2.83506 9.02619C2.79816 8.96573 4.09057 7.61859 4.09057 7.61859L6.14272 7.5526C6.15485 7.55206 6.1669 7.55484 6.1775 7.56061C6.18811 7.56639 6.19685 7.57493 6.20275 7.58529C6.20864 7.59565 6.21146 7.6074 6.21089 7.61924C6.21031 7.63107 6.20636 7.64252 6.19949 7.65228ZM7.00133 9.08895C6.69384 8.93481 6.77426 8.8522 6.74729 8.61775C6.72033 8.38331 7.45689 7.5526 7.45689 7.5526C7.45689 7.5526 10.3951 7.44507 10.4888 7.5526C10.5824 7.66013 10.7026 9.25602 10.7026 9.25602C10.7026 9.25602 7.30646 9.2431 7.00133 9.08895ZM15.4029 9.60815C15.3362 9.6603 11.5158 9.37324 11.5158 9.37324L11.1018 7.5526C11.1018 7.5526 11.222 7.58813 12.2504 7.5526C13.2789 7.51706 14.1739 7.94026 14.7752 8.19871C15.3765 8.45715 15.2691 8.79866 15.1622 8.81113C15.0552 8.82359 14.8551 9.0068 14.9086 9.25417C14.962 9.50154 15.4692 9.556 15.4011 9.60815H15.4029ZM21.6947 10.9631C21.5528 10.9308 21.488 10.7615 21.3276 10.6244C21.1672 10.4873 20.8545 10.5529 20.68 10.5256C20.5054 10.4984 19.8318 10.0313 19.8318 10.0313C19.8318 10.0313 20.4728 10.0835 20.8725 10.1356C21.2722 10.1878 21.1795 10.1356 21.5405 10.2399C21.9014 10.3442 22.3683 10.9631 22.3683 10.9631C22.3683 10.9631 21.8324 10.9959 21.6919 10.9631H21.6947Z" fill="#03060D"/>
<path d="M5.61623 11.2483C5.23454 11.2482 4.8614 11.3585 4.54401 11.5654C4.22661 11.7722 3.97921 12.0662 3.8331 12.4102C3.68699 12.7542 3.64874 13.1327 3.72318 13.4979C3.79762 13.8631 3.98141 14.1986 4.2513 14.4619C4.52119 14.7252 4.86506 14.9045 5.23942 14.9771C5.61377 15.0497 6.0018 15.0124 6.35441 14.8699C6.70702 14.7273 7.00838 14.486 7.22038 14.1763C7.43237 13.8667 7.54548 13.5027 7.54538 13.1303C7.54476 12.6314 7.3413 12.153 6.97965 11.8002C6.618 11.4474 6.12768 11.2489 5.61623 11.2483ZM4.66064 12.1215C4.91184 12.2908 5.18858 12.5004 5.24109 12.583C5.26758 12.6342 5.28364 12.69 5.28839 12.7473C5.27357 12.7574 5.25936 12.7683 5.24582 12.78C5.14633 12.7183 5.03237 12.6822 4.91467 12.6753C4.76377 12.6702 4.47094 12.7625 4.23583 12.8469C4.29727 12.5681 4.44566 12.3147 4.66064 12.1215ZM4.90096 12.9896H4.90569C4.97091 12.9972 5.03385 13.0178 5.09065 13.05C5.08594 13.0767 5.08357 13.1037 5.08356 13.1308C5.08369 13.1567 5.0859 13.1827 5.09018 13.2083C5.01515 13.2264 4.94413 13.2577 4.88061 13.3006C4.75383 13.3883 4.56886 13.6523 4.42884 13.8706C4.29651 13.6678 4.22114 13.4346 4.21028 13.1945C4.47378 13.0939 4.79546 12.9896 4.90096 12.9896ZM5.06795 13.5567C5.12739 13.5227 5.19345 13.5012 5.2619 13.4935L5.26616 13.4968C5.22531 13.579 5.20304 13.6689 5.20088 13.7603C5.20088 13.926 5.33712 14.2758 5.42937 14.4927C5.13542 14.4538 4.86149 14.3256 4.64645 14.1262C4.79499 13.8881 4.98705 13.6144 5.06795 13.5567ZM5.80403 12.4648C5.78679 12.5447 5.75228 12.6201 5.7028 12.6859C5.67048 12.6761 5.63717 12.6697 5.60345 12.667C5.59237 12.5781 5.56223 12.4926 5.51499 12.4159C5.427 12.2775 5.1285 12.0582 4.93833 11.9262C5.146 11.8147 5.37917 11.7561 5.61623 11.7559H5.62947C5.72409 12.0384 5.8135 12.3684 5.80403 12.4648ZM5.57223 13.5964C5.63771 13.5949 5.70214 13.5801 5.76146 13.5531C5.76124 13.5547 5.76124 13.5564 5.76146 13.5581C5.78054 13.6814 5.83223 13.7977 5.91142 13.8955C6.00177 13.9984 6.24256 14.1364 6.44504 14.2393C6.24942 14.3794 6.01994 14.4676 5.77896 14.4954C5.66968 14.2513 5.52114 13.8715 5.52161 13.7617C5.52721 13.7039 5.54441 13.6477 5.57223 13.5964ZM6.28609 12.6185C6.22158 12.6478 6.15146 12.6636 6.0803 12.6647C6.10504 12.6101 6.121 12.5522 6.12761 12.493C6.1418 12.3453 6.06091 12.0439 5.98569 11.8007C6.24722 11.8694 6.4827 12.0106 6.66359 12.2073C6.48998 12.4279 6.34664 12.5839 6.28609 12.6185ZM6.15978 13.6906C6.11994 13.6361 6.09207 13.5742 6.07794 13.5087C6.152 13.5535 6.23481 13.5827 6.32109 13.5946C6.46301 13.6107 6.74685 13.5461 6.97723 13.4848C6.92412 13.6777 6.82855 13.8571 6.69718 14.0104C6.41949 13.8724 6.20945 13.7473 6.15978 13.6906ZM6.04955 13.1188L6.0382 13.1068C6.03597 13.0612 6.02672 13.0163 6.01076 12.9734C6.03489 12.9734 6.05807 12.9757 6.08314 12.9757C6.21087 12.9787 6.3372 12.9493 6.44977 12.8903C6.54154 12.8377 6.67826 12.6997 6.8566 12.4796C6.96694 12.6796 7.0248 12.9032 7.02501 13.1303C7.02501 13.14 7.02501 13.1497 7.02501 13.1589C6.7653 13.2332 6.45118 13.3066 6.35799 13.2974C6.25013 13.2835 6.08645 13.1594 6.04955 13.1188Z" fill="#080B0F"/>
<path d="M19.2632 11.2483C18.8815 11.2484 18.5085 11.3589 18.1912 11.5658C17.8739 11.7727 17.6267 12.0668 17.4807 12.4108C17.3348 12.7548 17.2966 13.1333 17.3712 13.4985C17.4457 13.8636 17.6296 14.199 17.8995 14.4622C18.1695 14.7254 18.5133 14.9046 18.8877 14.9772C19.262 15.0497 19.65 15.0124 20.0025 14.8698C20.3551 14.7272 20.6564 14.4859 20.8683 14.1762C21.0803 13.8666 21.1934 13.5026 21.1933 13.1303C21.1926 12.6312 20.9891 12.1527 20.6272 11.7999C20.2654 11.447 19.7748 11.2487 19.2632 11.2483ZM18.3076 12.1215C18.5588 12.2908 18.835 12.5004 18.888 12.583C18.9145 12.6342 18.9306 12.69 18.9353 12.7473C18.9205 12.7574 18.9063 12.7683 18.8928 12.78C18.7933 12.7183 18.6793 12.6822 18.5616 12.6753C18.4107 12.6702 18.1179 12.7625 17.8828 12.8469C17.9442 12.5681 18.0926 12.3147 18.3076 12.1215ZM18.5479 12.9896H18.5526C18.6178 12.9973 18.6808 13.0179 18.7376 13.05C18.7329 13.0767 18.7305 13.1037 18.7305 13.1308C18.7306 13.1567 18.7328 13.1827 18.7371 13.2083C18.6621 13.2264 18.5911 13.2577 18.5276 13.3006C18.4008 13.3883 18.2158 13.6523 18.0758 13.8706C17.9432 13.668 17.8675 13.435 17.8563 13.1949C18.1207 13.0939 18.4424 12.9896 18.5479 12.9896ZM18.7149 13.5567C18.7743 13.5227 18.8404 13.5012 18.9088 13.4935C18.9103 13.4943 18.9116 13.4954 18.9126 13.4968C18.8722 13.5791 18.8501 13.6689 18.8478 13.7603C18.8478 13.926 18.9841 14.2758 19.0763 14.4927C18.7824 14.4538 18.5084 14.3256 18.2934 14.1262C18.4419 13.8881 18.634 13.6144 18.7149 13.5567ZM19.451 12.4648C19.4337 12.5447 19.3992 12.6201 19.3497 12.6859C19.3174 12.6761 19.2841 12.6697 19.2504 12.667C19.2393 12.5781 19.2092 12.4926 19.1619 12.4159C19.0739 12.2774 18.7754 12.0582 18.5853 11.9262C18.7929 11.8147 19.0261 11.7561 19.2632 11.7559H19.2759C19.3706 12.0384 19.4604 12.3684 19.451 12.4648ZM19.2192 13.5964C19.2846 13.5949 19.3491 13.5801 19.4084 13.5531C19.4082 13.5547 19.4082 13.5564 19.4084 13.5581C19.4275 13.6814 19.4792 13.7977 19.5584 13.8955C19.6487 13.9984 19.8895 14.1364 20.092 14.2393C19.8964 14.3794 19.6669 14.4676 19.4259 14.4954C19.3166 14.2513 19.1681 13.8715 19.1686 13.7617C19.1742 13.7039 19.1913 13.6477 19.2192 13.5964ZM19.933 12.6185C19.8685 12.6478 19.7984 12.6636 19.7272 12.6647C19.752 12.6101 19.7679 12.5522 19.7746 12.493C19.7887 12.3453 19.7079 12.0439 19.6326 11.8007C19.8942 11.8694 20.1296 12.0106 20.3105 12.2073C20.1369 12.4279 19.9936 12.5839 19.933 12.6185ZM19.8067 13.6906C19.7669 13.6361 19.739 13.5742 19.7249 13.5087C19.7989 13.5535 19.8818 13.5827 19.968 13.5946C20.11 13.6107 20.3938 13.5461 20.6242 13.4848C20.5708 13.6776 20.4753 13.857 20.3441 14.0104C20.0664 13.8724 19.8564 13.7473 19.8067 13.6906ZM19.6965 13.1188L19.6851 13.1068C19.6829 13.0612 19.6737 13.0163 19.6577 12.9734C19.6818 12.9734 19.705 12.9757 19.7301 12.9757C19.8578 12.9787 19.9841 12.9493 20.0967 12.8903C20.1885 12.8377 20.3252 12.6997 20.5031 12.4796C20.6138 12.6795 20.6718 12.9031 20.672 13.1303C20.672 13.14 20.672 13.1497 20.672 13.1589C20.4122 13.2332 20.0981 13.3066 20.0049 13.2974C19.8971 13.2835 19.7334 13.1594 19.6965 13.1188Z" fill="#080B0F"/>
</svg>
