<svg width="25" height="22" viewBox="0 0 25 22" fill="none" xmlns="http://www.w3.org/2000/svg">
<path d="M5.46581 16.3253C5.34092 15.5837 5.4185 14.8485 5.51311 14.1133C5.57792 13.608 5.88636 13.3384 6.42139 13.3394C6.51885 13.3394 6.6163 13.3394 6.71375 13.3394C8.00474 13.2965 8.49294 13.2761 8.48821 14.9279C8.48821 15.2048 8.55538 15.3506 8.88227 15.3252C9.23092 15.2985 9.58383 15.3211 9.93484 15.3183C10.0673 15.3183 10.1964 15.3322 10.3133 15.226C11.5352 14.1304 13.4393 14.1115 14.6655 15.1766C14.8074 15.2999 16.264 15.3931 16.3964 15.2851C16.5014 15.1992 16.4631 15.0765 16.4745 14.9671C16.5066 14.6653 16.5166 14.3598 16.5757 14.063C16.6628 13.6283 16.9229 13.3523 17.4097 13.3403H17.4679C19.0882 13.3703 19.4609 13.0482 19.5768 15.0848C19.6274 15.9616 19.5598 16.8302 19.4775 17.6955C19.4174 18.3315 18.9476 18.4902 17.5904 18.4418C16.939 18.4187 16.6325 18.1649 16.5648 17.5968C16.4153 16.287 16.4153 16.2912 15.0501 16.4181C14.8788 16.4342 14.753 16.4601 14.6905 16.6359C14.5065 17.1546 14.0548 17.3328 13.5628 17.414C12.813 17.5443 12.0446 17.5343 11.2987 17.3845C10.9552 17.3129 10.6392 17.1717 10.4098 16.8847C10.2896 16.7342 10.3625 16.431 10.0659 16.4268C9.5791 16.4199 9.09089 16.4153 8.606 16.4522C8.44895 16.4638 8.5024 16.6691 8.49247 16.7956C8.36616 18.4007 8.29142 18.4672 6.63569 18.4404C5.82628 18.4275 5.51737 18.1469 5.46912 17.3494C5.44878 17.0093 5.46581 16.6668 5.46581 16.3253Z" fill="black"/>
<path d="M13.8712 13.7736C13.0599 13.559 12.277 13.5124 11.4879 13.6966C11.2012 13.7635 11.065 13.7478 11.1535 13.3781C11.3015 12.7611 11.2325 12.0818 11.8124 11.611C11.8862 11.551 11.8673 11.366 11.8678 11.2386C11.8709 9.81222 11.8709 8.38556 11.8678 6.95858C11.8678 6.38954 11.5664 6.11218 10.9803 6.1071C10.7854 6.1071 10.59 6.1071 10.3951 6.1071C9.52658 6.1071 9.52706 6.1071 9.42204 6.94058C9.41258 7.01581 9.42204 7.10488 9.38325 7.16303C8.98635 7.75745 8.36569 7.49116 7.8316 7.51931C7.42949 7.54054 7.22466 7.25256 7.21661 6.89812C7.19249 6.00465 7.20573 5.11025 7.20857 4.21631C7.21244 4.14115 7.2309 4.06738 7.26297 3.99894C7.44652 3.57158 7.98203 3.46082 8.89221 3.62143C9.34635 3.70127 9.47786 3.99756 9.42109 4.36353C9.32648 4.96349 9.61032 5.04979 10.1354 5.00964C10.8223 4.9598 11.5224 5.09779 12.153 4.65612C12.4369 4.45768 12.7997 4.55275 13.0859 4.75119C13.8485 5.27962 14.7014 4.89795 15.5071 4.98195C15.7512 5.00687 15.649 4.71612 15.6537 4.56659C15.6636 4.20016 15.623 3.77142 16.0686 3.65973C16.589 3.52959 17.1524 3.47513 17.659 3.74003C17.8535 3.84249 17.8809 4.08478 17.8814 4.29938C17.8814 5.13655 17.8814 5.97326 17.8847 6.81044C17.8847 7.27933 17.6306 7.50639 17.167 7.529C16.9527 7.53961 16.738 7.53454 16.5232 7.529C15.8888 7.51792 15.6291 7.32086 15.6755 6.72044C15.7185 6.1574 15.4862 6.04618 14.9891 6.09649C14.6612 6.12971 14.3268 6.10156 13.9956 6.10295C13.3409 6.10618 12.9672 6.46431 12.9662 7.09472C12.9662 8.42617 12.9662 9.75761 12.9639 11.0895C12.9639 11.3406 12.936 11.5778 13.2628 11.6862C13.4611 11.7518 13.5117 11.9733 13.577 12.1454C13.7695 12.6665 13.8352 13.2074 13.8712 13.7736Z" fill="black"/>
</svg>
