<svg width="363" height="56" viewBox="0 0 363 56" fill="none" xmlns="http://www.w3.org/2000/svg">
<path d="M16.112 45.551H5.09099C2.27932 45.551 0 47.8303 0 50.642C0 53.4537 2.27933 55.733 5.09101 55.733H357.409C360.221 55.733 362.5 53.4537 362.5 50.642C362.5 47.8303 360.221 45.551 357.409 45.551H346.388C342.586 45.551 338.906 44.2062 335.999 41.7546L297.673 9.42513C290.458 3.33856 281.322 0 271.882 0H90.6177C81.1779 0 72.0422 3.33856 64.8267 9.42514L26.5007 41.7546C23.5942 44.2062 19.9144 45.551 16.112 45.551Z" fill="#F1F0EB"/>
</svg>
