<svg width="18" height="18" viewBox="0 0 18 18" fill="none" xmlns="http://www.w3.org/2000/svg">
<path d="M9.06677 0C4.1409 0 0.13343 3.94283 0.13343 8.78919C0.13343 10.4446 0.600172 12.0466 1.48614 13.4409L0.0355936 17.2546C-0.04143 17.4572 0.0088345 17.6854 0.164284 17.8383C0.271433 17.9437 0.414821 18 0.561071 18C0.627043 18 0.693576 17.9886 0.757585 17.965L4.76091 16.4911C6.07491 17.2032 7.55766 17.5784 9.06671 17.5784C13.9926 17.5784 18 13.6355 18 8.78919C18.0001 3.94283 13.9926 0 9.06677 0ZM13.3714 11.5492C13.1219 12.422 12.1894 13.0553 11.1541 13.0553C11.0528 13.0553 10.9506 13.0491 10.8517 13.037C9.59331 12.859 8.12061 12.0096 6.90938 10.7619C5.63386 9.56334 4.7705 8.11461 4.59979 6.88649C4.42701 5.64352 4.99232 4.7166 6.11182 4.40685C6.16932 4.39095 6.23014 4.38289 6.29257 4.38289C6.94837 4.38289 7.72954 5.2947 8.00089 5.94836C8.1776 6.37407 8.1642 6.70203 7.96219 6.89692C7.45528 7.38572 7.26634 7.68288 7.28816 7.95692C7.31262 8.26231 7.60153 8.61516 8.09233 9.1214C8.15494 9.18609 8.23875 9.27219 8.33289 9.36519C8.42079 9.45135 8.50505 9.53077 8.57955 9.60087C9.12747 10.1149 9.48527 10.3936 9.80671 10.3936C10.074 10.3935 10.3638 10.2071 10.8403 9.72875C10.9125 9.65634 11.0457 9.57007 11.2699 9.57007C11.8613 9.57007 12.6959 10.1379 13.1044 10.6683C13.3519 10.9896 13.4442 11.2943 13.3714 11.5492Z" fill="white"/>
</svg>
