<svg width="18" height="19" viewBox="0 0 18 19" fill="none" xmlns="http://www.w3.org/2000/svg">
<path d="M2.77465 1.08773C3.12145 0.971618 3.44044 0.9765 3.74145 1.08635C3.87071 1.13352 4.13102 1.32176 4.48681 1.68273C4.82303 2.02388 5.19216 2.46512 5.53713 2.9323C5.88211 3.3995 6.19575 3.88241 6.42344 4.30498C6.66412 4.75172 6.76863 5.05831 6.77634 5.19839C6.80981 5.80719 6.35801 6.14275 5.9497 6.41845C5.54529 6.69175 5.24054 7.04233 5.13667 7.51059C5.03616 7.9641 5.14547 8.4357 5.35795 8.90991C6.20718 10.805 7.69153 12.2312 9.73469 13.1513C10.0182 13.279 10.3105 13.359 10.5961 13.3589C11.1284 13.3587 11.5374 13.0805 11.8273 12.6436C12.261 11.9903 12.7232 11.7428 13.195 11.7426C13.5683 11.7425 14.0103 11.8904 14.5634 12.2762C14.6614 12.3445 14.7598 12.4127 14.8575 12.4802C15.3297 12.8073 15.8015 13.134 16.2426 13.4865C16.3346 13.5601 16.4319 13.6343 16.5201 13.7012C16.8709 13.9675 17.1677 14.2005 17.3466 14.4909C17.501 14.7417 17.5834 15.0637 17.4037 15.569C17.1815 16.1936 16.6945 16.809 16.086 17.2698C15.4751 17.7323 14.7984 17.9962 14.2298 17.9971C14.1768 17.9836 14.1149 17.9702 14.0609 17.9581L14.0599 17.9581C13.8476 17.911 13.6056 17.8556 13.3821 17.7601C10.4153 16.4918 7.86367 14.8071 5.79215 12.7574L5.79117 12.7574C3.67513 10.6637 1.99356 8.12236 0.794899 5.20085C0.413444 4.27103 0.414939 3.4273 0.734315 2.73407C1.04535 2.05897 1.66351 1.50505 2.58621 1.15519L2.77465 1.08773Z" stroke="#1C69D4"/>
</svg>
