<svg width="50" height="50" viewBox="0 0 50 50" fill="none" xmlns="http://www.w3.org/2000/svg">
<rect x="0.5" y="0.5" width="49" height="49" rx="7.5" stroke="#1C69D4"/>
<path d="M31.2842 27.9585C31.2127 27.906 31.1388 27.8517 31.0695 27.798C30.7023 27.5139 30.3115 27.252 29.9337 26.9986C29.8552 26.9461 29.7768 26.8936 29.6987 26.8409C29.2146 26.514 28.7795 26.3552 28.3685 26.3554C27.8149 26.3556 27.3324 26.6502 26.9342 27.2307C26.7578 27.4881 26.5438 27.6133 26.2799 27.6134C26.1239 27.6135 25.9465 27.5707 25.7529 27.4862C24.1907 26.8053 23.075 25.7608 22.4366 24.3816C22.128 23.7151 22.2278 23.2792 22.7702 22.9243C23.0783 22.723 23.6516 22.3481 23.6107 21.6307C23.5644 20.816 21.6953 18.3655 20.9081 18.0874C20.5748 17.9696 20.2247 17.9687 19.8656 18.0851C18.9609 18.3782 18.3118 18.8925 17.9883 19.5723C17.6757 20.2292 17.6901 21.0003 18.0301 21.8024C19.0128 24.1213 20.394 26.1429 22.1354 27.8109C23.8399 29.4437 25.9346 30.7809 28.3613 31.7852C28.58 31.8756 28.8095 31.9249 28.977 31.9609C29.0341 31.9732 29.0834 31.9837 29.1193 31.9932C29.139 31.9983 29.1594 32.0011 29.1798 32.0013L29.199 32.0014C30.3401 32.0009 31.71 30.9969 32.1304 29.8528C32.4987 28.851 31.8253 28.3561 31.2842 27.9585Z" fill="#1C69D4"/>
</svg>
