<svg width="18" height="19" viewBox="0 0 18 19" fill="none" xmlns="http://www.w3.org/2000/svg">
<g clip-path="url(#clip0_190_501)">
<path d="M9 1C13.6944 1 17.5 4.80558 17.5 9.5C17.5 14.1944 13.6944 18 9 18C4.30558 18 0.5 14.1944 0.5 9.5C0.5 4.80558 4.30558 1 9 1ZM9.0625 2.8125H8.9375V1.11523L8.40137 1.1543C4.25395 1.45527 0.955273 4.75395 0.654297 8.90137L0.615234 9.4375H2.3125V9.5625H0.615234L0.654297 10.0986C0.955273 14.2461 4.25395 17.5447 8.40137 17.8457L8.9375 17.8848V16.1875H9.0625V17.8848L9.59863 17.8457C13.7461 17.5447 17.0447 14.2461 17.3457 10.0986L17.3848 9.5625H15.6875V9.4375H17.3848L17.3457 8.90137C17.0447 4.75395 13.7461 1.45527 9.59863 1.1543L9.0625 1.11523V2.8125Z" stroke="#1C69D4"/>
<path d="M9.56251 9.26938V5.5625H8.43751V9.5C8.43663 9.64952 8.49534 9.7932 8.60063 9.89937L11.4131 12.7119L12.2063 11.9188L9.56251 9.26938Z" fill="#1C69D4"/>
</g>
<defs>
<clipPath id="clip0_190_501">
<rect width="18" height="18" fill="white" transform="translate(0 0.5)"/>
</clipPath>
</defs>
</svg>
