<svg width="50" height="50" viewBox="0 0 50 50" fill="none" xmlns="http://www.w3.org/2000/svg">
<rect x="0.5" y="0.5" width="49" height="49" rx="7.5" stroke="#1C69D4"/>
<path fill-rule="evenodd" clip-rule="evenodd" d="M24.7646 29.1983H25.6612C25.6612 29.1983 25.932 29.1683 26.0704 29.0191C26.1979 28.8826 26.1936 28.6261 26.1936 28.6261C26.1936 28.6261 26.1762 27.4238 26.7344 27.2461C27.285 27.0721 27.9918 28.4086 28.7409 28.9223C29.3076 29.3108 29.738 29.2261 29.738 29.2261L31.7414 29.1983C31.7414 29.1983 32.7894 29.1331 32.2924 28.3103C32.2516 28.2428 32.0029 27.7013 30.8028 26.5876C29.5465 25.4228 29.7153 25.6111 31.228 23.5958C32.1495 22.3681 32.518 21.6196 32.4028 21.2986C32.2932 20.9926 31.6153 21.0736 31.6153 21.0736L29.3597 21.0871C29.2596 21.0753 29.1584 21.0933 29.0685 21.1388C28.9829 21.2013 28.9145 21.2844 28.8695 21.3803C28.6358 21.9862 28.3573 22.5738 28.0363 23.1383C27.032 24.8423 26.6302 24.9323 26.4661 24.8266C26.0841 24.5798 26.1796 23.8358 26.1796 23.3071C26.1796 21.6548 26.4303 20.9663 25.6914 20.7886C25.4463 20.7293 25.2657 20.6903 24.6385 20.6836C23.8337 20.6753 23.1525 20.6858 22.7669 20.8748C22.5103 21.0008 22.3122 21.2806 22.4329 21.2963C22.582 21.3166 22.9195 21.3878 23.0985 21.6308C23.3298 21.9451 23.3217 22.6508 23.3217 22.6508C23.3217 22.6508 23.4545 24.5948 23.0115 24.8363C22.7075 25.0021 22.2904 24.6638 21.3948 23.1181C21.0909 22.58 20.8219 22.0228 20.5897 21.4501C20.5484 21.3529 20.4847 21.2668 20.4038 21.1988C20.2989 21.1295 20.181 21.0821 20.0574 21.0593L17.9138 21.0736C17.9138 21.0736 17.5921 21.0826 17.474 21.2221C17.369 21.3466 17.4656 21.6038 17.4656 21.6038C17.4656 21.6038 19.1435 25.5271 21.0437 27.5041C22.7863 29.3168 24.7646 29.1983 24.7646 29.1983Z" fill="#1C69D4"/>
</svg>
